<svg id="delete" xmlns="http://www.w3.org/2000/svg" width="455.112" height="455.112" viewBox="0 0 455.112 455.112">
  <circle id="Ellipse_1" data-name="Ellipse 1" cx="227.556" cy="227.556" r="227.556" transform="translate(0 0)" fill="#e24c4b"/>
  <path id="Path_1" data-name="Path 1" d="M455.111,227.556c0,125.156-102.4,227.556-227.556,227.556-72.533,0-136.533-32.711-177.778-85.333,38.4,31.289,88.178,49.778,142.222,49.778,125.156,0,227.556-102.4,227.556-227.556,0-54.044-18.489-103.822-49.778-142.222C422.4,91.022,455.111,155.022,455.111,227.556Z" fill="#d1403f"/>
  <path id="Path_2" data-name="Path 2" d="M331.378,331.378a22.322,22.322,0,0,1-31.289,0l-72.533-72.533-72.533,72.533a22.125,22.125,0,0,1-31.289-31.289l72.533-72.533-72.533-72.533a22.125,22.125,0,1,1,31.289-31.289l72.533,72.533,72.533-72.533a22.125,22.125,0,0,1,31.289,31.289l-72.533,72.533,72.533,72.533A22.322,22.322,0,0,1,331.378,331.378Z" fill="#fff"/>
</svg>
